<mxfile host="Electron" modified="2024-03-19T23:28:08.003Z" agent="Mozilla/5.0 (Windows NT 10.0; Win64; x64) AppleWebKit/537.36 (KHTML, like Gecko) draw.io/21.1.2 Chrome/106.0.5249.199 Electron/21.4.3 Safari/537.36" etag="vBft7NxrwN8ymCZvljyG" version="21.1.2" type="device">
  <diagram name="Página-1" id="FYilyHACO1_T75HSCRsM">
    <mxGraphModel dx="3331" dy="2435" grid="1" gridSize="10" guides="1" tooltips="1" connect="1" arrows="1" fold="1" page="1" pageScale="1" pageWidth="1169" pageHeight="1654" math="0" shadow="0">
      <root>
        <mxCell id="0" />
        <mxCell id="1" parent="0" />
        <mxCell id="MlGHDWVRIxSeFs9TXQ3_-5" value="&lt;b&gt;&lt;u&gt;Id_cita&lt;/u&gt;&lt;/b&gt;" style="ellipse;whiteSpace=wrap;html=1;" parent="1" vertex="1">
          <mxGeometry x="-220" y="562.5" width="60" height="30" as="geometry" />
        </mxCell>
        <mxCell id="MlGHDWVRIxSeFs9TXQ3_-7" value="&lt;b&gt;&lt;u&gt;Id_dueño&lt;/u&gt;&lt;/b&gt;" style="ellipse;whiteSpace=wrap;html=1;" parent="1" vertex="1">
          <mxGeometry x="20" y="90" width="70" height="40" as="geometry" />
        </mxCell>
        <mxCell id="MlGHDWVRIxSeFs9TXQ3_-19" value="Cuidadora / Hotel de Perro" style="rounded=0;whiteSpace=wrap;html=1;" parent="1" vertex="1">
          <mxGeometry x="455" y="597.5" width="120" height="60" as="geometry" />
        </mxCell>
        <mxCell id="qQAGesgytiKlmJrBEsk5-5" value="" style="rounded=0;orthogonalLoop=1;jettySize=auto;html=1;endArrow=none;endFill=0;" parent="1" source="MlGHDWVRIxSeFs9TXQ3_-20" target="MlGHDWVRIxSeFs9TXQ3_-19" edge="1">
          <mxGeometry relative="1" as="geometry" />
        </mxCell>
        <mxCell id="MlGHDWVRIxSeFs9TXQ3_-20" value="&lt;u&gt;&lt;b&gt;ID cuidaddor /hotel&lt;/b&gt;&lt;/u&gt;" style="ellipse;whiteSpace=wrap;html=1;" parent="1" vertex="1">
          <mxGeometry x="435" y="517.5" width="100" height="45" as="geometry" />
        </mxCell>
        <mxCell id="MlGHDWVRIxSeFs9TXQ3_-21" value="Nombre" style="ellipse;whiteSpace=wrap;html=1;" parent="1" vertex="1">
          <mxGeometry x="555" y="517.5" width="100" height="50" as="geometry" />
        </mxCell>
        <mxCell id="qQAGesgytiKlmJrBEsk5-1" value="direccion" style="ellipse;whiteSpace=wrap;html=1;" parent="1" vertex="1">
          <mxGeometry x="635" y="587.5" width="100" height="50" as="geometry" />
        </mxCell>
        <mxCell id="qQAGesgytiKlmJrBEsk5-2" value="tel" style="ellipse;whiteSpace=wrap;html=1;" parent="1" vertex="1">
          <mxGeometry x="615" y="647.5" width="100" height="50" as="geometry" />
        </mxCell>
        <mxCell id="qQAGesgytiKlmJrBEsk5-3" value="Servicios Ofrecidos" style="ellipse;whiteSpace=wrap;html=1;" parent="1" vertex="1">
          <mxGeometry x="525" y="687.5" width="100" height="50" as="geometry" />
        </mxCell>
        <mxCell id="qQAGesgytiKlmJrBEsk5-4" value="Dueño" style="rounded=0;whiteSpace=wrap;html=1;" parent="1" vertex="1">
          <mxGeometry x="-70" y="147.5" width="120" height="60" as="geometry" />
        </mxCell>
        <mxCell id="qQAGesgytiKlmJrBEsk5-6" value="" style="rounded=0;orthogonalLoop=1;jettySize=auto;html=1;endArrow=none;endFill=0;exitX=0.5;exitY=1;exitDx=0;exitDy=0;entryX=0.75;entryY=0;entryDx=0;entryDy=0;" parent="1" source="MlGHDWVRIxSeFs9TXQ3_-21" target="MlGHDWVRIxSeFs9TXQ3_-19" edge="1">
          <mxGeometry relative="1" as="geometry">
            <mxPoint x="502" y="572.5" as="sourcePoint" />
            <mxPoint x="515" y="607.5" as="targetPoint" />
          </mxGeometry>
        </mxCell>
        <mxCell id="qQAGesgytiKlmJrBEsk5-7" value="" style="rounded=0;orthogonalLoop=1;jettySize=auto;html=1;endArrow=none;endFill=0;exitX=0;exitY=0.5;exitDx=0;exitDy=0;entryX=1;entryY=0.25;entryDx=0;entryDy=0;" parent="1" source="qQAGesgytiKlmJrBEsk5-1" target="MlGHDWVRIxSeFs9TXQ3_-19" edge="1">
          <mxGeometry relative="1" as="geometry">
            <mxPoint x="615" y="577.5" as="sourcePoint" />
            <mxPoint x="555" y="607.5" as="targetPoint" />
          </mxGeometry>
        </mxCell>
        <mxCell id="qQAGesgytiKlmJrBEsk5-8" value="" style="rounded=0;orthogonalLoop=1;jettySize=auto;html=1;endArrow=none;endFill=0;exitX=0;exitY=0;exitDx=0;exitDy=0;entryX=1;entryY=0.5;entryDx=0;entryDy=0;" parent="1" source="qQAGesgytiKlmJrBEsk5-2" target="MlGHDWVRIxSeFs9TXQ3_-19" edge="1">
          <mxGeometry relative="1" as="geometry">
            <mxPoint x="645" y="622.5" as="sourcePoint" />
            <mxPoint x="585" y="622.5" as="targetPoint" />
          </mxGeometry>
        </mxCell>
        <mxCell id="qQAGesgytiKlmJrBEsk5-9" value="" style="rounded=0;orthogonalLoop=1;jettySize=auto;html=1;endArrow=none;endFill=0;exitX=0.5;exitY=0;exitDx=0;exitDy=0;entryX=0.75;entryY=1;entryDx=0;entryDy=0;" parent="1" source="qQAGesgytiKlmJrBEsk5-3" target="MlGHDWVRIxSeFs9TXQ3_-19" edge="1">
          <mxGeometry relative="1" as="geometry">
            <mxPoint x="640" y="664.5" as="sourcePoint" />
            <mxPoint x="585" y="637.5" as="targetPoint" />
          </mxGeometry>
        </mxCell>
        <mxCell id="qQAGesgytiKlmJrBEsk5-10" value="" style="endArrow=none;html=1;rounded=0;exitX=0.5;exitY=0;exitDx=0;exitDy=0;" parent="1" source="qQAGesgytiKlmJrBEsk5-4" target="MlGHDWVRIxSeFs9TXQ3_-7" edge="1">
          <mxGeometry width="50" height="50" relative="1" as="geometry">
            <mxPoint x="220" y="150" as="sourcePoint" />
            <mxPoint x="270" y="100" as="targetPoint" />
          </mxGeometry>
        </mxCell>
        <mxCell id="qQAGesgytiKlmJrBEsk5-11" value="Nombre" style="ellipse;whiteSpace=wrap;html=1;" parent="1" vertex="1">
          <mxGeometry x="110" y="120" width="80" height="40" as="geometry" />
        </mxCell>
        <mxCell id="qQAGesgytiKlmJrBEsk5-12" value="Direccion" style="ellipse;whiteSpace=wrap;html=1;" parent="1" vertex="1">
          <mxGeometry x="90" y="160" width="80" height="40" as="geometry" />
        </mxCell>
        <mxCell id="qQAGesgytiKlmJrBEsk5-13" value="Tel" style="ellipse;whiteSpace=wrap;html=1;" parent="1" vertex="1">
          <mxGeometry x="35" y="230" width="80" height="40" as="geometry" />
        </mxCell>
        <mxCell id="qQAGesgytiKlmJrBEsk5-14" value="" style="endArrow=none;html=1;rounded=0;exitX=1;exitY=0;exitDx=0;exitDy=0;entryX=0;entryY=0.5;entryDx=0;entryDy=0;" parent="1" source="qQAGesgytiKlmJrBEsk5-4" target="qQAGesgytiKlmJrBEsk5-11" edge="1">
          <mxGeometry width="50" height="50" relative="1" as="geometry">
            <mxPoint x="40" y="160" as="sourcePoint" />
            <mxPoint x="90" y="110" as="targetPoint" />
          </mxGeometry>
        </mxCell>
        <mxCell id="qQAGesgytiKlmJrBEsk5-15" value="" style="endArrow=none;html=1;rounded=0;exitX=1;exitY=0.5;exitDx=0;exitDy=0;entryX=0;entryY=0.5;entryDx=0;entryDy=0;" parent="1" source="qQAGesgytiKlmJrBEsk5-4" target="qQAGesgytiKlmJrBEsk5-12" edge="1">
          <mxGeometry width="50" height="50" relative="1" as="geometry">
            <mxPoint x="40" y="160" as="sourcePoint" />
            <mxPoint x="90" y="110" as="targetPoint" />
          </mxGeometry>
        </mxCell>
        <mxCell id="qQAGesgytiKlmJrBEsk5-16" value="" style="endArrow=none;html=1;rounded=0;exitX=1;exitY=1;exitDx=0;exitDy=0;entryX=0.5;entryY=0;entryDx=0;entryDy=0;" parent="1" source="qQAGesgytiKlmJrBEsk5-4" target="qQAGesgytiKlmJrBEsk5-13" edge="1">
          <mxGeometry width="50" height="50" relative="1" as="geometry">
            <mxPoint x="40" y="160" as="sourcePoint" />
            <mxPoint x="90" y="110" as="targetPoint" />
          </mxGeometry>
        </mxCell>
        <mxCell id="qQAGesgytiKlmJrBEsk5-17" value="Cita" style="rounded=0;whiteSpace=wrap;html=1;" parent="1" vertex="1">
          <mxGeometry x="-240" y="612.5" width="120" height="60" as="geometry" />
        </mxCell>
        <mxCell id="qQAGesgytiKlmJrBEsk5-18" value="" style="endArrow=none;html=1;rounded=0;entryX=0.5;entryY=1;entryDx=0;entryDy=0;exitX=0.5;exitY=0;exitDx=0;exitDy=0;" parent="1" source="qQAGesgytiKlmJrBEsk5-17" target="MlGHDWVRIxSeFs9TXQ3_-5" edge="1">
          <mxGeometry width="50" height="50" relative="1" as="geometry">
            <mxPoint x="-200" y="672.5" as="sourcePoint" />
            <mxPoint x="-150" y="622.5" as="targetPoint" />
          </mxGeometry>
        </mxCell>
        <mxCell id="qQAGesgytiKlmJrBEsk5-19" value="Fecha" style="ellipse;whiteSpace=wrap;html=1;" parent="1" vertex="1">
          <mxGeometry x="-80" y="642.5" width="70" height="30" as="geometry" />
        </mxCell>
        <mxCell id="qQAGesgytiKlmJrBEsk5-20" value="" style="endArrow=none;html=1;rounded=0;exitX=0;exitY=0.5;exitDx=0;exitDy=0;entryX=1;entryY=0.5;entryDx=0;entryDy=0;" parent="1" source="qQAGesgytiKlmJrBEsk5-19" target="qQAGesgytiKlmJrBEsk5-17" edge="1">
          <mxGeometry width="50" height="50" relative="1" as="geometry">
            <mxPoint x="-30" y="677.5" as="sourcePoint" />
            <mxPoint y="632.5" as="targetPoint" />
          </mxGeometry>
        </mxCell>
        <mxCell id="qQAGesgytiKlmJrBEsk5-21" value="Hora" style="ellipse;whiteSpace=wrap;html=1;" parent="1" vertex="1">
          <mxGeometry x="-65" y="597.5" width="65" height="25" as="geometry" />
        </mxCell>
        <mxCell id="qQAGesgytiKlmJrBEsk5-22" value="" style="endArrow=none;html=1;rounded=0;exitX=1;exitY=0.25;exitDx=0;exitDy=0;entryX=0;entryY=0.5;entryDx=0;entryDy=0;" parent="1" source="qQAGesgytiKlmJrBEsk5-17" edge="1" target="qQAGesgytiKlmJrBEsk5-21">
          <mxGeometry width="50" height="50" relative="1" as="geometry">
            <mxPoint x="-50" y="682.5" as="sourcePoint" />
            <mxPoint x="-30" y="632.5" as="targetPoint" />
          </mxGeometry>
        </mxCell>
        <mxCell id="qQAGesgytiKlmJrBEsk5-24" value="Motivo" style="ellipse;whiteSpace=wrap;html=1;" parent="1" vertex="1">
          <mxGeometry x="-350" y="747" width="90" height="40" as="geometry" />
        </mxCell>
        <mxCell id="qQAGesgytiKlmJrBEsk5-26" value="" style="endArrow=none;html=1;rounded=0;exitX=0;exitY=0;exitDx=0;exitDy=0;" parent="1" source="qQAGesgytiKlmJrBEsk5-24" target="qQAGesgytiKlmJrBEsk5-17" edge="1">
          <mxGeometry width="50" height="50" relative="1" as="geometry">
            <mxPoint x="-50" y="682.5" as="sourcePoint" />
            <mxPoint y="632.5" as="targetPoint" />
          </mxGeometry>
        </mxCell>
        <mxCell id="ZOqUm4qgHndNliNhtv4M-108" value="" style="edgeStyle=orthogonalEdgeStyle;rounded=0;orthogonalLoop=1;jettySize=auto;html=1;endArrow=none;endFill=0;" edge="1" parent="1" source="qQAGesgytiKlmJrBEsk5-27" target="ZOqUm4qgHndNliNhtv4M-107">
          <mxGeometry relative="1" as="geometry" />
        </mxCell>
        <mxCell id="qQAGesgytiKlmJrBEsk5-27" value="Mascota" style="rounded=0;whiteSpace=wrap;html=1;" parent="1" vertex="1">
          <mxGeometry x="-410" y="270" width="90" height="30" as="geometry" />
        </mxCell>
        <mxCell id="qQAGesgytiKlmJrBEsk5-28" value="&lt;b&gt;&lt;u&gt;Id_mascota&lt;/u&gt;&lt;/b&gt;" style="ellipse;whiteSpace=wrap;html=1;" parent="1" vertex="1">
          <mxGeometry x="-250" y="310" width="80" height="40" as="geometry" />
        </mxCell>
        <mxCell id="qQAGesgytiKlmJrBEsk5-29" value="Nombre" style="ellipse;whiteSpace=wrap;html=1;" parent="1" vertex="1">
          <mxGeometry x="-530" y="280" width="80" height="40" as="geometry" />
        </mxCell>
        <mxCell id="qQAGesgytiKlmJrBEsk5-30" value="fecha nacimiento" style="ellipse;whiteSpace=wrap;html=1;" parent="1" vertex="1">
          <mxGeometry x="-340" y="190" width="80" height="40" as="geometry" />
        </mxCell>
        <mxCell id="ZOqUm4qgHndNliNhtv4M-2" value="" style="endArrow=none;html=1;rounded=0;exitX=0;exitY=0.5;exitDx=0;exitDy=0;" edge="1" parent="1" source="qQAGesgytiKlmJrBEsk5-28" target="qQAGesgytiKlmJrBEsk5-27">
          <mxGeometry width="50" height="50" relative="1" as="geometry">
            <mxPoint x="-220" y="420" as="sourcePoint" />
            <mxPoint x="-170" y="370" as="targetPoint" />
          </mxGeometry>
        </mxCell>
        <mxCell id="ZOqUm4qgHndNliNhtv4M-3" value="" style="endArrow=none;html=1;rounded=0;exitX=0.75;exitY=0;exitDx=0;exitDy=0;" edge="1" parent="1" source="qQAGesgytiKlmJrBEsk5-27" target="qQAGesgytiKlmJrBEsk5-30">
          <mxGeometry width="50" height="50" relative="1" as="geometry">
            <mxPoint x="-220" y="420" as="sourcePoint" />
            <mxPoint x="-170" y="370" as="targetPoint" />
          </mxGeometry>
        </mxCell>
        <mxCell id="ZOqUm4qgHndNliNhtv4M-8" value="" style="endArrow=none;html=1;rounded=0;exitX=1;exitY=0.5;exitDx=0;exitDy=0;entryX=0;entryY=0.25;entryDx=0;entryDy=0;" edge="1" parent="1" source="qQAGesgytiKlmJrBEsk5-29" target="qQAGesgytiKlmJrBEsk5-27">
          <mxGeometry width="50" height="50" relative="1" as="geometry">
            <mxPoint x="-220" y="420" as="sourcePoint" />
            <mxPoint x="-170" y="370" as="targetPoint" />
          </mxGeometry>
        </mxCell>
        <mxCell id="ZOqUm4qgHndNliNhtv4M-101" value="" style="edgeStyle=orthogonalEdgeStyle;rounded=0;orthogonalLoop=1;jettySize=auto;html=1;endArrow=none;endFill=0;" edge="1" parent="1" source="ZOqUm4qgHndNliNhtv4M-23" target="ZOqUm4qgHndNliNhtv4M-100">
          <mxGeometry relative="1" as="geometry" />
        </mxCell>
        <mxCell id="ZOqUm4qgHndNliNhtv4M-23" value="Especie" style="rounded=0;whiteSpace=wrap;html=1;" vertex="1" parent="1">
          <mxGeometry x="-475" y="70" width="80" height="30" as="geometry" />
        </mxCell>
        <mxCell id="ZOqUm4qgHndNliNhtv4M-24" value="&lt;b&gt;&lt;u&gt;ID_especie&lt;/u&gt;&lt;/b&gt;" style="ellipse;whiteSpace=wrap;html=1;" vertex="1" parent="1">
          <mxGeometry x="-360" y="20" width="70" height="30" as="geometry" />
        </mxCell>
        <mxCell id="ZOqUm4qgHndNliNhtv4M-25" value="Nombre" style="ellipse;whiteSpace=wrap;html=1;" vertex="1" parent="1">
          <mxGeometry x="-565" width="80" height="40" as="geometry" />
        </mxCell>
        <mxCell id="ZOqUm4qgHndNliNhtv4M-26" value="" style="endArrow=none;html=1;rounded=0;exitX=1;exitY=0;exitDx=0;exitDy=0;entryX=0;entryY=0.5;entryDx=0;entryDy=0;" edge="1" parent="1" source="ZOqUm4qgHndNliNhtv4M-23" target="ZOqUm4qgHndNliNhtv4M-24">
          <mxGeometry width="50" height="50" relative="1" as="geometry">
            <mxPoint x="-620" y="-100" as="sourcePoint" />
            <mxPoint x="-570" y="-150" as="targetPoint" />
          </mxGeometry>
        </mxCell>
        <mxCell id="ZOqUm4qgHndNliNhtv4M-27" value="" style="endArrow=none;html=1;rounded=0;exitX=1;exitY=1;exitDx=0;exitDy=0;entryX=0;entryY=0;entryDx=0;entryDy=0;" edge="1" parent="1" source="ZOqUm4qgHndNliNhtv4M-25" target="ZOqUm4qgHndNliNhtv4M-23">
          <mxGeometry width="50" height="50" relative="1" as="geometry">
            <mxPoint x="-620" y="-100" as="sourcePoint" />
            <mxPoint x="-570" y="-150" as="targetPoint" />
          </mxGeometry>
        </mxCell>
        <mxCell id="ZOqUm4qgHndNliNhtv4M-104" value="" style="edgeStyle=orthogonalEdgeStyle;rounded=0;orthogonalLoop=1;jettySize=auto;html=1;endArrow=none;endFill=0;" edge="1" parent="1" source="ZOqUm4qgHndNliNhtv4M-28" target="ZOqUm4qgHndNliNhtv4M-99">
          <mxGeometry relative="1" as="geometry" />
        </mxCell>
        <mxCell id="ZOqUm4qgHndNliNhtv4M-28" value="Raza" style="rounded=0;whiteSpace=wrap;html=1;" vertex="1" parent="1">
          <mxGeometry x="-810" y="150" width="100" height="40" as="geometry" />
        </mxCell>
        <mxCell id="ZOqUm4qgHndNliNhtv4M-29" value="&lt;b&gt;&lt;u&gt;ID_raza&lt;/u&gt;&lt;/b&gt;" style="ellipse;whiteSpace=wrap;html=1;" vertex="1" parent="1">
          <mxGeometry x="-780" y="70" width="65" height="30" as="geometry" />
        </mxCell>
        <mxCell id="ZOqUm4qgHndNliNhtv4M-30" value="" style="endArrow=none;html=1;rounded=0;exitX=0.5;exitY=0;exitDx=0;exitDy=0;entryX=0.5;entryY=1;entryDx=0;entryDy=0;" edge="1" parent="1" source="ZOqUm4qgHndNliNhtv4M-28" target="ZOqUm4qgHndNliNhtv4M-29">
          <mxGeometry width="50" height="50" relative="1" as="geometry">
            <mxPoint x="-570" y="80" as="sourcePoint" />
            <mxPoint x="-520" y="30" as="targetPoint" />
          </mxGeometry>
        </mxCell>
        <mxCell id="ZOqUm4qgHndNliNhtv4M-31" value="Nombre" style="ellipse;whiteSpace=wrap;html=1;" vertex="1" parent="1">
          <mxGeometry x="-940" y="147.5" width="70" height="40" as="geometry" />
        </mxCell>
        <mxCell id="ZOqUm4qgHndNliNhtv4M-33" value="" style="endArrow=none;html=1;rounded=0;exitX=1;exitY=0.5;exitDx=0;exitDy=0;entryX=0;entryY=0.5;entryDx=0;entryDy=0;" edge="1" parent="1" source="ZOqUm4qgHndNliNhtv4M-31" target="ZOqUm4qgHndNliNhtv4M-28">
          <mxGeometry width="50" height="50" relative="1" as="geometry">
            <mxPoint x="-570" y="80" as="sourcePoint" />
            <mxPoint x="-520" y="30" as="targetPoint" />
          </mxGeometry>
        </mxCell>
        <mxCell id="ZOqUm4qgHndNliNhtv4M-130" value="" style="edgeStyle=orthogonalEdgeStyle;rounded=0;orthogonalLoop=1;jettySize=auto;html=1;endArrow=none;endFill=0;exitX=1;exitY=0.75;exitDx=0;exitDy=0;entryX=0.5;entryY=0;entryDx=0;entryDy=0;" edge="1" parent="1" source="ZOqUm4qgHndNliNhtv4M-197" target="ZOqUm4qgHndNliNhtv4M-129">
          <mxGeometry relative="1" as="geometry">
            <mxPoint x="-1150" y="-140" as="sourcePoint" />
            <mxPoint x="-425" y="-160" as="targetPoint" />
            <Array as="points" />
          </mxGeometry>
        </mxCell>
        <mxCell id="ZOqUm4qgHndNliNhtv4M-34" value="Enfermedad" style="rounded=0;whiteSpace=wrap;html=1;" vertex="1" parent="1">
          <mxGeometry x="-1282.5" y="-217.5" width="100" height="40" as="geometry" />
        </mxCell>
        <mxCell id="ZOqUm4qgHndNliNhtv4M-35" value="&lt;b&gt;&lt;u&gt;Id_enfermedad&lt;/u&gt;&lt;/b&gt;" style="ellipse;whiteSpace=wrap;html=1;" vertex="1" parent="1">
          <mxGeometry x="-1420" y="-287.5" width="90" height="40" as="geometry" />
        </mxCell>
        <mxCell id="ZOqUm4qgHndNliNhtv4M-36" value="Nombre" style="ellipse;whiteSpace=wrap;html=1;" vertex="1" parent="1">
          <mxGeometry x="-1325" y="-297.5" width="90" height="40" as="geometry" />
        </mxCell>
        <mxCell id="ZOqUm4qgHndNliNhtv4M-37" value="Descripcion" style="ellipse;whiteSpace=wrap;html=1;" vertex="1" parent="1">
          <mxGeometry x="-1235" y="-307.5" width="90" height="40" as="geometry" />
        </mxCell>
        <mxCell id="ZOqUm4qgHndNliNhtv4M-40" value="" style="endArrow=none;html=1;rounded=0;exitX=0.5;exitY=1;exitDx=0;exitDy=0;entryX=0;entryY=0;entryDx=0;entryDy=0;" edge="1" parent="1" source="ZOqUm4qgHndNliNhtv4M-35" target="ZOqUm4qgHndNliNhtv4M-34">
          <mxGeometry width="50" height="50" relative="1" as="geometry">
            <mxPoint x="-1262.5" y="-187.5" as="sourcePoint" />
            <mxPoint x="-1212.5" y="-237.5" as="targetPoint" />
          </mxGeometry>
        </mxCell>
        <mxCell id="ZOqUm4qgHndNliNhtv4M-41" value="" style="endArrow=none;html=1;rounded=0;exitX=0.5;exitY=1;exitDx=0;exitDy=0;entryX=0.5;entryY=0;entryDx=0;entryDy=0;" edge="1" parent="1" source="ZOqUm4qgHndNliNhtv4M-36" target="ZOqUm4qgHndNliNhtv4M-34">
          <mxGeometry width="50" height="50" relative="1" as="geometry">
            <mxPoint x="-1262.5" y="-187.5" as="sourcePoint" />
            <mxPoint x="-1212.5" y="-237.5" as="targetPoint" />
          </mxGeometry>
        </mxCell>
        <mxCell id="ZOqUm4qgHndNliNhtv4M-44" value="" style="endArrow=none;html=1;rounded=0;exitX=0;exitY=1;exitDx=0;exitDy=0;entryX=1;entryY=0;entryDx=0;entryDy=0;" edge="1" parent="1" source="ZOqUm4qgHndNliNhtv4M-37" target="ZOqUm4qgHndNliNhtv4M-34">
          <mxGeometry width="50" height="50" relative="1" as="geometry">
            <mxPoint x="-1262.5" y="-187.5" as="sourcePoint" />
            <mxPoint x="-1212.5" y="-237.5" as="targetPoint" />
          </mxGeometry>
        </mxCell>
        <mxCell id="ZOqUm4qgHndNliNhtv4M-45" value="Historial" style="rounded=0;whiteSpace=wrap;html=1;" vertex="1" parent="1">
          <mxGeometry x="-941.25" y="562.5" width="95" height="30" as="geometry" />
        </mxCell>
        <mxCell id="ZOqUm4qgHndNliNhtv4M-46" value="&lt;b&gt;&lt;u&gt;ID_historial&lt;/u&gt;&lt;/b&gt;" style="ellipse;whiteSpace=wrap;html=1;" vertex="1" parent="1">
          <mxGeometry x="-957.5" y="490" width="87.5" height="40" as="geometry" />
        </mxCell>
        <mxCell id="ZOqUm4qgHndNliNhtv4M-47" value="fecha consulta" style="ellipse;whiteSpace=wrap;html=1;" vertex="1" parent="1">
          <mxGeometry x="-791.25" y="572.5" width="80" height="30" as="geometry" />
        </mxCell>
        <mxCell id="ZOqUm4qgHndNliNhtv4M-48" value="Diagnostico" style="ellipse;whiteSpace=wrap;html=1;" vertex="1" parent="1">
          <mxGeometry x="-851.25" y="612.5" width="80" height="30" as="geometry" />
        </mxCell>
        <mxCell id="ZOqUm4qgHndNliNhtv4M-50" value="Dosis" style="ellipse;whiteSpace=wrap;html=1;" vertex="1" parent="1">
          <mxGeometry x="-1030" y="807" width="70" height="40" as="geometry" />
        </mxCell>
        <mxCell id="ZOqUm4qgHndNliNhtv4M-51" value="" style="endArrow=none;html=1;rounded=0;exitX=0;exitY=0;exitDx=0;exitDy=0;entryX=0;entryY=0.5;entryDx=0;entryDy=0;" edge="1" parent="1" source="ZOqUm4qgHndNliNhtv4M-50" target="ZOqUm4qgHndNliNhtv4M-166">
          <mxGeometry width="50" height="50" relative="1" as="geometry">
            <mxPoint x="-771.25" y="502.5" as="sourcePoint" />
            <mxPoint x="-1080" y="750" as="targetPoint" />
          </mxGeometry>
        </mxCell>
        <mxCell id="ZOqUm4qgHndNliNhtv4M-52" value="" style="endArrow=none;html=1;rounded=0;exitX=0.5;exitY=0;exitDx=0;exitDy=0;entryX=0;entryY=1;entryDx=0;entryDy=0;" edge="1" parent="1" source="ZOqUm4qgHndNliNhtv4M-169" target="ZOqUm4qgHndNliNhtv4M-45">
          <mxGeometry width="50" height="50" relative="1" as="geometry">
            <mxPoint x="-996.25" y="710" as="sourcePoint" />
            <mxPoint x="-721.25" y="452.5" as="targetPoint" />
          </mxGeometry>
        </mxCell>
        <mxCell id="ZOqUm4qgHndNliNhtv4M-53" value="" style="endArrow=none;html=1;rounded=0;exitX=0.5;exitY=1;exitDx=0;exitDy=0;entryX=0.5;entryY=0;entryDx=0;entryDy=0;" edge="1" parent="1" source="ZOqUm4qgHndNliNhtv4M-46" target="ZOqUm4qgHndNliNhtv4M-45">
          <mxGeometry width="50" height="50" relative="1" as="geometry">
            <mxPoint x="-771.25" y="502.5" as="sourcePoint" />
            <mxPoint x="-721.25" y="452.5" as="targetPoint" />
          </mxGeometry>
        </mxCell>
        <mxCell id="ZOqUm4qgHndNliNhtv4M-54" value="" style="endArrow=none;html=1;rounded=0;exitX=0;exitY=0.5;exitDx=0;exitDy=0;entryX=1;entryY=0.5;entryDx=0;entryDy=0;" edge="1" parent="1" source="ZOqUm4qgHndNliNhtv4M-47" target="ZOqUm4qgHndNliNhtv4M-45">
          <mxGeometry width="50" height="50" relative="1" as="geometry">
            <mxPoint x="-771.25" y="502.5" as="sourcePoint" />
            <mxPoint x="-721.25" y="452.5" as="targetPoint" />
          </mxGeometry>
        </mxCell>
        <mxCell id="ZOqUm4qgHndNliNhtv4M-55" value="" style="endArrow=none;html=1;rounded=0;exitX=0;exitY=0;exitDx=0;exitDy=0;entryX=0.75;entryY=1;entryDx=0;entryDy=0;" edge="1" parent="1" source="ZOqUm4qgHndNliNhtv4M-48" target="ZOqUm4qgHndNliNhtv4M-45">
          <mxGeometry width="50" height="50" relative="1" as="geometry">
            <mxPoint x="-771.25" y="502.5" as="sourcePoint" />
            <mxPoint x="-721.25" y="452.5" as="targetPoint" />
          </mxGeometry>
        </mxCell>
        <mxCell id="ZOqUm4qgHndNliNhtv4M-56" value="Medicamento" style="rounded=0;whiteSpace=wrap;html=1;" vertex="1" parent="1">
          <mxGeometry x="-780" y="847" width="100" height="40" as="geometry" />
        </mxCell>
        <mxCell id="ZOqUm4qgHndNliNhtv4M-58" value="&lt;b&gt;&lt;u&gt;ID_medicamento&lt;/u&gt;&lt;/b&gt;" style="ellipse;whiteSpace=wrap;html=1;" vertex="1" parent="1">
          <mxGeometry x="-665" y="787" width="120" height="40" as="geometry" />
        </mxCell>
        <mxCell id="ZOqUm4qgHndNliNhtv4M-59" value="" style="endArrow=none;html=1;rounded=0;exitX=0.75;exitY=0;exitDx=0;exitDy=0;entryX=0.5;entryY=1;entryDx=0;entryDy=0;" edge="1" parent="1" source="ZOqUm4qgHndNliNhtv4M-56" target="ZOqUm4qgHndNliNhtv4M-58">
          <mxGeometry width="50" height="50" relative="1" as="geometry">
            <mxPoint x="-630" y="837" as="sourcePoint" />
            <mxPoint x="-580" y="787" as="targetPoint" />
          </mxGeometry>
        </mxCell>
        <mxCell id="ZOqUm4qgHndNliNhtv4M-60" value="Nombre" style="ellipse;whiteSpace=wrap;html=1;" vertex="1" parent="1">
          <mxGeometry x="-645" y="870" width="80" height="40" as="geometry" />
        </mxCell>
        <mxCell id="ZOqUm4qgHndNliNhtv4M-61" value="Descripcion" style="ellipse;whiteSpace=wrap;html=1;" vertex="1" parent="1">
          <mxGeometry x="-720" y="930" width="80" height="40" as="geometry" />
        </mxCell>
        <mxCell id="ZOqUm4qgHndNliNhtv4M-62" value="" style="endArrow=none;html=1;rounded=0;exitX=0;exitY=0.5;exitDx=0;exitDy=0;entryX=1;entryY=0.5;entryDx=0;entryDy=0;" edge="1" parent="1" source="ZOqUm4qgHndNliNhtv4M-60" target="ZOqUm4qgHndNliNhtv4M-56">
          <mxGeometry width="50" height="50" relative="1" as="geometry">
            <mxPoint x="-630" y="837" as="sourcePoint" />
            <mxPoint x="-580" y="787" as="targetPoint" />
          </mxGeometry>
        </mxCell>
        <mxCell id="ZOqUm4qgHndNliNhtv4M-63" value="" style="endArrow=none;html=1;rounded=0;exitX=0.5;exitY=0;exitDx=0;exitDy=0;entryX=0.75;entryY=1;entryDx=0;entryDy=0;" edge="1" parent="1" source="ZOqUm4qgHndNliNhtv4M-61" target="ZOqUm4qgHndNliNhtv4M-56">
          <mxGeometry width="50" height="50" relative="1" as="geometry">
            <mxPoint x="-630" y="837" as="sourcePoint" />
            <mxPoint x="-580" y="787" as="targetPoint" />
          </mxGeometry>
        </mxCell>
        <mxCell id="ZOqUm4qgHndNliNhtv4M-64" value="Tratamiento" style="rounded=0;whiteSpace=wrap;html=1;" vertex="1" parent="1">
          <mxGeometry x="-1455" y="520" width="82.5" height="40" as="geometry" />
        </mxCell>
        <mxCell id="ZOqUm4qgHndNliNhtv4M-65" value="&lt;b&gt;&lt;u&gt;ID_tratamiento&lt;/u&gt;&lt;/b&gt;" style="ellipse;whiteSpace=wrap;html=1;" vertex="1" parent="1">
          <mxGeometry x="-1428.75" y="460" width="87.5" height="40" as="geometry" />
        </mxCell>
        <mxCell id="ZOqUm4qgHndNliNhtv4M-66" value="fecha&amp;nbsp;&lt;br&gt;inicio" style="ellipse;whiteSpace=wrap;html=1;" vertex="1" parent="1">
          <mxGeometry x="-1348.75" y="490" width="80" height="40" as="geometry" />
        </mxCell>
        <mxCell id="ZOqUm4qgHndNliNhtv4M-67" value="fecha&amp;nbsp;&lt;br&gt;fin" style="ellipse;whiteSpace=wrap;html=1;" vertex="1" parent="1">
          <mxGeometry x="-1345" y="570" width="80" height="40" as="geometry" />
        </mxCell>
        <mxCell id="ZOqUm4qgHndNliNhtv4M-68" value="Notas" style="ellipse;whiteSpace=wrap;html=1;" vertex="1" parent="1">
          <mxGeometry x="-1428.75" y="590" width="80" height="40" as="geometry" />
        </mxCell>
        <mxCell id="ZOqUm4qgHndNliNhtv4M-69" value="" style="endArrow=none;html=1;rounded=0;exitX=0.75;exitY=0;exitDx=0;exitDy=0;" edge="1" parent="1" source="ZOqUm4qgHndNliNhtv4M-64">
          <mxGeometry width="50" height="50" relative="1" as="geometry">
            <mxPoint x="-1435" y="400" as="sourcePoint" />
            <mxPoint x="-1385" y="500" as="targetPoint" />
          </mxGeometry>
        </mxCell>
        <mxCell id="ZOqUm4qgHndNliNhtv4M-70" value="" style="endArrow=none;html=1;rounded=0;exitX=1;exitY=0.5;exitDx=0;exitDy=0;entryX=0;entryY=0.5;entryDx=0;entryDy=0;" edge="1" parent="1" source="ZOqUm4qgHndNliNhtv4M-64" target="ZOqUm4qgHndNliNhtv4M-66">
          <mxGeometry width="50" height="50" relative="1" as="geometry">
            <mxPoint x="-1435" y="400" as="sourcePoint" />
            <mxPoint x="-1385" y="350" as="targetPoint" />
          </mxGeometry>
        </mxCell>
        <mxCell id="ZOqUm4qgHndNliNhtv4M-71" value="" style="endArrow=none;html=1;rounded=0;exitX=1;exitY=1;exitDx=0;exitDy=0;entryX=0;entryY=0.5;entryDx=0;entryDy=0;" edge="1" parent="1" source="ZOqUm4qgHndNliNhtv4M-64" target="ZOqUm4qgHndNliNhtv4M-67">
          <mxGeometry width="50" height="50" relative="1" as="geometry">
            <mxPoint x="-1435" y="400" as="sourcePoint" />
            <mxPoint x="-1385" y="350" as="targetPoint" />
          </mxGeometry>
        </mxCell>
        <mxCell id="ZOqUm4qgHndNliNhtv4M-72" value="" style="endArrow=none;html=1;rounded=0;exitX=0.5;exitY=0;exitDx=0;exitDy=0;entryX=0.75;entryY=1;entryDx=0;entryDy=0;" edge="1" parent="1" source="ZOqUm4qgHndNliNhtv4M-68" target="ZOqUm4qgHndNliNhtv4M-64">
          <mxGeometry width="50" height="50" relative="1" as="geometry">
            <mxPoint x="-1435" y="400" as="sourcePoint" />
            <mxPoint x="-1385" y="350" as="targetPoint" />
          </mxGeometry>
        </mxCell>
        <mxCell id="ZOqUm4qgHndNliNhtv4M-73" value="Estetica" style="rounded=0;whiteSpace=wrap;html=1;" vertex="1" parent="1">
          <mxGeometry x="390" y="850" width="80" height="40" as="geometry" />
        </mxCell>
        <mxCell id="ZOqUm4qgHndNliNhtv4M-74" value="&lt;b&gt;&lt;u&gt;ID_estetica&lt;/u&gt;&lt;/b&gt;" style="ellipse;whiteSpace=wrap;html=1;" vertex="1" parent="1">
          <mxGeometry x="406.25" y="780" width="87.5" height="40" as="geometry" />
        </mxCell>
        <mxCell id="ZOqUm4qgHndNliNhtv4M-75" value="Nombre" style="ellipse;whiteSpace=wrap;html=1;" vertex="1" parent="1">
          <mxGeometry x="520" y="850" width="70" height="30" as="geometry" />
        </mxCell>
        <mxCell id="ZOqUm4qgHndNliNhtv4M-76" value="Direccion" style="ellipse;whiteSpace=wrap;html=1;" vertex="1" parent="1">
          <mxGeometry x="520" y="900" width="70" height="30" as="geometry" />
        </mxCell>
        <mxCell id="ZOqUm4qgHndNliNhtv4M-77" value="Tel" style="ellipse;whiteSpace=wrap;html=1;" vertex="1" parent="1">
          <mxGeometry x="430" y="900" width="70" height="30" as="geometry" />
        </mxCell>
        <mxCell id="ZOqUm4qgHndNliNhtv4M-78" value="" style="endArrow=none;html=1;rounded=0;entryX=0;entryY=0.5;entryDx=0;entryDy=0;exitX=1;exitY=0.5;exitDx=0;exitDy=0;" edge="1" parent="1" source="ZOqUm4qgHndNliNhtv4M-73" target="ZOqUm4qgHndNliNhtv4M-75">
          <mxGeometry width="50" height="50" relative="1" as="geometry">
            <mxPoint x="380" y="880" as="sourcePoint" />
            <mxPoint x="430" y="830" as="targetPoint" />
          </mxGeometry>
        </mxCell>
        <mxCell id="ZOqUm4qgHndNliNhtv4M-81" value="" style="endArrow=none;html=1;rounded=0;entryX=0.5;entryY=1;entryDx=0;entryDy=0;exitX=0.75;exitY=0;exitDx=0;exitDy=0;" edge="1" parent="1" source="ZOqUm4qgHndNliNhtv4M-73" target="ZOqUm4qgHndNliNhtv4M-74">
          <mxGeometry width="50" height="50" relative="1" as="geometry">
            <mxPoint x="380" y="880" as="sourcePoint" />
            <mxPoint x="430" y="830" as="targetPoint" />
          </mxGeometry>
        </mxCell>
        <mxCell id="ZOqUm4qgHndNliNhtv4M-82" value="" style="endArrow=none;html=1;rounded=0;entryX=0.5;entryY=0;entryDx=0;entryDy=0;exitX=0.75;exitY=1;exitDx=0;exitDy=0;" edge="1" parent="1" source="ZOqUm4qgHndNliNhtv4M-73" target="ZOqUm4qgHndNliNhtv4M-77">
          <mxGeometry width="50" height="50" relative="1" as="geometry">
            <mxPoint x="380" y="880" as="sourcePoint" />
            <mxPoint x="430" y="830" as="targetPoint" />
          </mxGeometry>
        </mxCell>
        <mxCell id="ZOqUm4qgHndNliNhtv4M-83" value="" style="endArrow=none;html=1;rounded=0;entryX=0;entryY=0;entryDx=0;entryDy=0;exitX=1;exitY=0.75;exitDx=0;exitDy=0;" edge="1" parent="1" source="ZOqUm4qgHndNliNhtv4M-73" target="ZOqUm4qgHndNliNhtv4M-76">
          <mxGeometry width="50" height="50" relative="1" as="geometry">
            <mxPoint x="380" y="880" as="sourcePoint" />
            <mxPoint x="430" y="830" as="targetPoint" />
          </mxGeometry>
        </mxCell>
        <mxCell id="ZOqUm4qgHndNliNhtv4M-84" value="Veterinario" style="rounded=0;whiteSpace=wrap;html=1;" vertex="1" parent="1">
          <mxGeometry x="140" y="1020" width="80" height="40" as="geometry" />
        </mxCell>
        <mxCell id="ZOqUm4qgHndNliNhtv4M-86" value="&lt;b&gt;&lt;u&gt;ID_veterinario&lt;/u&gt;&lt;/b&gt;" style="ellipse;whiteSpace=wrap;html=1;" vertex="1" parent="1">
          <mxGeometry x="245" y="1000" width="87.5" height="40" as="geometry" />
        </mxCell>
        <mxCell id="ZOqUm4qgHndNliNhtv4M-87" value="Nombre" style="ellipse;whiteSpace=wrap;html=1;" vertex="1" parent="1">
          <mxGeometry x="180" y="960" width="80" height="40" as="geometry" />
        </mxCell>
        <mxCell id="ZOqUm4qgHndNliNhtv4M-88" value="Direccion" style="ellipse;whiteSpace=wrap;html=1;" vertex="1" parent="1">
          <mxGeometry x="230" y="1070" width="80" height="40" as="geometry" />
        </mxCell>
        <mxCell id="ZOqUm4qgHndNliNhtv4M-89" value="Tel" style="ellipse;whiteSpace=wrap;html=1;" vertex="1" parent="1">
          <mxGeometry x="140" y="1100" width="80" height="40" as="geometry" />
        </mxCell>
        <mxCell id="ZOqUm4qgHndNliNhtv4M-90" value="Especilidad" style="ellipse;whiteSpace=wrap;html=1;" vertex="1" parent="1">
          <mxGeometry x="90" y="920" width="80" height="40" as="geometry" />
        </mxCell>
        <mxCell id="ZOqUm4qgHndNliNhtv4M-91" value="estudios" style="ellipse;whiteSpace=wrap;html=1;" vertex="1" parent="1">
          <mxGeometry x="30" y="1040" width="100" height="40" as="geometry" />
        </mxCell>
        <mxCell id="ZOqUm4qgHndNliNhtv4M-92" value="" style="endArrow=none;html=1;rounded=0;exitX=1;exitY=0;exitDx=0;exitDy=0;entryX=0;entryY=0.5;entryDx=0;entryDy=0;" edge="1" parent="1" source="ZOqUm4qgHndNliNhtv4M-91" target="ZOqUm4qgHndNliNhtv4M-84">
          <mxGeometry width="50" height="50" relative="1" as="geometry">
            <mxPoint x="240" y="900" as="sourcePoint" />
            <mxPoint x="290" y="850" as="targetPoint" />
          </mxGeometry>
        </mxCell>
        <mxCell id="ZOqUm4qgHndNliNhtv4M-93" value="" style="endArrow=none;html=1;rounded=0;exitX=0.5;exitY=1;exitDx=0;exitDy=0;entryX=0.25;entryY=0;entryDx=0;entryDy=0;" edge="1" parent="1" source="ZOqUm4qgHndNliNhtv4M-90" target="ZOqUm4qgHndNliNhtv4M-84">
          <mxGeometry width="50" height="50" relative="1" as="geometry">
            <mxPoint x="240" y="900" as="sourcePoint" />
            <mxPoint x="290" y="850" as="targetPoint" />
          </mxGeometry>
        </mxCell>
        <mxCell id="ZOqUm4qgHndNliNhtv4M-94" value="" style="endArrow=none;html=1;rounded=0;exitX=0.5;exitY=1;exitDx=0;exitDy=0;entryX=0.75;entryY=0;entryDx=0;entryDy=0;" edge="1" parent="1" source="ZOqUm4qgHndNliNhtv4M-87" target="ZOqUm4qgHndNliNhtv4M-84">
          <mxGeometry width="50" height="50" relative="1" as="geometry">
            <mxPoint x="240" y="900" as="sourcePoint" />
            <mxPoint x="290" y="850" as="targetPoint" />
          </mxGeometry>
        </mxCell>
        <mxCell id="ZOqUm4qgHndNliNhtv4M-95" value="Hacer tabla aparte con estudios" style="whiteSpace=wrap;html=1;" vertex="1" parent="1">
          <mxGeometry x="-110" y="1200" width="120" height="60" as="geometry" />
        </mxCell>
        <mxCell id="ZOqUm4qgHndNliNhtv4M-96" value="" style="endArrow=none;html=1;rounded=0;exitX=0;exitY=0.5;exitDx=0;exitDy=0;entryX=1;entryY=0.5;entryDx=0;entryDy=0;" edge="1" parent="1" source="ZOqUm4qgHndNliNhtv4M-86" target="ZOqUm4qgHndNliNhtv4M-84">
          <mxGeometry width="50" height="50" relative="1" as="geometry">
            <mxPoint x="240" y="900" as="sourcePoint" />
            <mxPoint x="290" y="850" as="targetPoint" />
          </mxGeometry>
        </mxCell>
        <mxCell id="ZOqUm4qgHndNliNhtv4M-97" value="" style="endArrow=none;html=1;rounded=0;exitX=0;exitY=0;exitDx=0;exitDy=0;entryX=1;entryY=0.75;entryDx=0;entryDy=0;" edge="1" parent="1" source="ZOqUm4qgHndNliNhtv4M-88" target="ZOqUm4qgHndNliNhtv4M-84">
          <mxGeometry width="50" height="50" relative="1" as="geometry">
            <mxPoint x="240" y="900" as="sourcePoint" />
            <mxPoint x="290" y="850" as="targetPoint" />
          </mxGeometry>
        </mxCell>
        <mxCell id="ZOqUm4qgHndNliNhtv4M-98" value="" style="endArrow=none;html=1;rounded=0;exitX=0.5;exitY=0;exitDx=0;exitDy=0;entryX=0.5;entryY=1;entryDx=0;entryDy=0;" edge="1" parent="1" source="ZOqUm4qgHndNliNhtv4M-89" target="ZOqUm4qgHndNliNhtv4M-84">
          <mxGeometry width="50" height="50" relative="1" as="geometry">
            <mxPoint x="240" y="900" as="sourcePoint" />
            <mxPoint x="290" y="850" as="targetPoint" />
          </mxGeometry>
        </mxCell>
        <mxCell id="ZOqUm4qgHndNliNhtv4M-103" value="" style="edgeStyle=orthogonalEdgeStyle;rounded=0;orthogonalLoop=1;jettySize=auto;html=1;entryX=0;entryY=0;entryDx=0;entryDy=0;endArrow=none;endFill=0;exitX=1;exitY=0.5;exitDx=0;exitDy=0;" edge="1" parent="1" source="ZOqUm4qgHndNliNhtv4M-99" target="qQAGesgytiKlmJrBEsk5-27">
          <mxGeometry relative="1" as="geometry">
            <Array as="points">
              <mxPoint x="-550" y="240" />
              <mxPoint x="-410" y="240" />
            </Array>
          </mxGeometry>
        </mxCell>
        <mxCell id="ZOqUm4qgHndNliNhtv4M-99" value="raza&lt;br&gt;mascota" style="rhombus;whiteSpace=wrap;html=1;" vertex="1" parent="1">
          <mxGeometry x="-620" y="180" width="70" height="70" as="geometry" />
        </mxCell>
        <mxCell id="ZOqUm4qgHndNliNhtv4M-102" value="" style="edgeStyle=orthogonalEdgeStyle;rounded=0;orthogonalLoop=1;jettySize=auto;html=1;endArrow=none;endFill=0;" edge="1" parent="1" source="ZOqUm4qgHndNliNhtv4M-100" target="qQAGesgytiKlmJrBEsk5-27">
          <mxGeometry relative="1" as="geometry" />
        </mxCell>
        <mxCell id="ZOqUm4qgHndNliNhtv4M-100" value="especie&lt;br&gt;mascota" style="rhombus;whiteSpace=wrap;html=1;" vertex="1" parent="1">
          <mxGeometry x="-435" y="150" width="70" height="70" as="geometry" />
        </mxCell>
        <mxCell id="ZOqUm4qgHndNliNhtv4M-105" value="N" style="text;html=1;strokeColor=none;fillColor=none;align=center;verticalAlign=middle;whiteSpace=wrap;rounded=0;" vertex="1" parent="1">
          <mxGeometry x="-485" y="210" width="60" height="30" as="geometry" />
        </mxCell>
        <mxCell id="ZOqUm4qgHndNliNhtv4M-106" value="1-1" style="text;html=1;strokeColor=none;fillColor=none;align=center;verticalAlign=middle;whiteSpace=wrap;rounded=0;" vertex="1" parent="1">
          <mxGeometry x="-710" y="140" width="60" height="30" as="geometry" />
        </mxCell>
        <mxCell id="ZOqUm4qgHndNliNhtv4M-109" value="" style="edgeStyle=orthogonalEdgeStyle;rounded=0;orthogonalLoop=1;jettySize=auto;html=1;endArrow=none;endFill=0;" edge="1" parent="1" source="ZOqUm4qgHndNliNhtv4M-107" target="qQAGesgytiKlmJrBEsk5-4">
          <mxGeometry relative="1" as="geometry" />
        </mxCell>
        <mxCell id="ZOqUm4qgHndNliNhtv4M-107" value="tiene" style="rhombus;whiteSpace=wrap;html=1;" vertex="1" parent="1">
          <mxGeometry x="-240" y="200" width="80" height="80" as="geometry" />
        </mxCell>
        <mxCell id="ZOqUm4qgHndNliNhtv4M-110" value="1 -1" style="text;html=1;strokeColor=none;fillColor=none;align=center;verticalAlign=middle;whiteSpace=wrap;rounded=0;" vertex="1" parent="1">
          <mxGeometry x="-130" y="147.5" width="60" height="30" as="geometry" />
        </mxCell>
        <mxCell id="ZOqUm4qgHndNliNhtv4M-111" value="1 - N" style="text;html=1;strokeColor=none;fillColor=none;align=center;verticalAlign=middle;whiteSpace=wrap;rounded=0;" vertex="1" parent="1">
          <mxGeometry x="-330" y="260" width="60" height="30" as="geometry" />
        </mxCell>
        <mxCell id="ZOqUm4qgHndNliNhtv4M-118" value="1-1" style="text;html=1;align=center;verticalAlign=middle;resizable=0;points=[];autosize=1;strokeColor=none;fillColor=none;" vertex="1" parent="1">
          <mxGeometry x="-480" y="95" width="40" height="30" as="geometry" />
        </mxCell>
        <mxCell id="ZOqUm4qgHndNliNhtv4M-119" value="0 - N" style="text;html=1;align=center;verticalAlign=middle;resizable=0;points=[];autosize=1;strokeColor=none;fillColor=none;" vertex="1" parent="1">
          <mxGeometry x="-395" y="215" width="50" height="30" as="geometry" />
        </mxCell>
        <mxCell id="ZOqUm4qgHndNliNhtv4M-124" value="comun" style="rhombus;whiteSpace=wrap;html=1;" vertex="1" parent="1">
          <mxGeometry x="-1150" y="-40" width="80" height="80" as="geometry" />
        </mxCell>
        <mxCell id="ZOqUm4qgHndNliNhtv4M-125" value="" style="endArrow=none;html=1;rounded=0;exitX=0.5;exitY=0;exitDx=0;exitDy=0;entryX=0.5;entryY=1;entryDx=0;entryDy=0;" edge="1" parent="1" source="ZOqUm4qgHndNliNhtv4M-132" target="ZOqUm4qgHndNliNhtv4M-34">
          <mxGeometry width="50" height="50" relative="1" as="geometry">
            <mxPoint x="-470" y="40" as="sourcePoint" />
            <mxPoint x="-420" y="-10" as="targetPoint" />
          </mxGeometry>
        </mxCell>
        <mxCell id="ZOqUm4qgHndNliNhtv4M-126" value="" style="endArrow=none;html=1;rounded=0;exitX=0.5;exitY=1;exitDx=0;exitDy=0;entryX=0;entryY=0;entryDx=0;entryDy=0;" edge="1" parent="1" source="ZOqUm4qgHndNliNhtv4M-124" target="ZOqUm4qgHndNliNhtv4M-28">
          <mxGeometry width="50" height="50" relative="1" as="geometry">
            <mxPoint x="-470" y="40" as="sourcePoint" />
            <mxPoint x="-420" y="-10" as="targetPoint" />
          </mxGeometry>
        </mxCell>
        <mxCell id="ZOqUm4qgHndNliNhtv4M-127" value="N- 0" style="text;html=1;align=center;verticalAlign=middle;resizable=0;points=[];autosize=1;strokeColor=none;fillColor=none;" vertex="1" parent="1">
          <mxGeometry x="-1349" y="-222.5" width="50" height="30" as="geometry" />
        </mxCell>
        <mxCell id="ZOqUm4qgHndNliNhtv4M-128" value="N - N" style="text;html=1;align=center;verticalAlign=middle;resizable=0;points=[];autosize=1;strokeColor=none;fillColor=none;" vertex="1" parent="1">
          <mxGeometry x="-840" y="110" width="50" height="30" as="geometry" />
        </mxCell>
        <mxCell id="ZOqUm4qgHndNliNhtv4M-131" value="" style="edgeStyle=orthogonalEdgeStyle;rounded=0;orthogonalLoop=1;jettySize=auto;html=1;entryX=0.5;entryY=0;entryDx=0;entryDy=0;endArrow=none;endFill=0;" edge="1" parent="1" source="ZOqUm4qgHndNliNhtv4M-129" target="ZOqUm4qgHndNliNhtv4M-23">
          <mxGeometry relative="1" as="geometry" />
        </mxCell>
        <mxCell id="ZOqUm4qgHndNliNhtv4M-129" value="comun" style="rhombus;whiteSpace=wrap;html=1;" vertex="1" parent="1">
          <mxGeometry x="-465" y="-80" width="80" height="80" as="geometry" />
        </mxCell>
        <mxCell id="ZOqUm4qgHndNliNhtv4M-133" value="N- N" style="text;html=1;align=center;verticalAlign=middle;resizable=0;points=[];autosize=1;strokeColor=none;fillColor=none;" vertex="1" parent="1">
          <mxGeometry x="-485" y="40" width="50" height="30" as="geometry" />
        </mxCell>
        <mxCell id="ZOqUm4qgHndNliNhtv4M-139" value="" style="edgeStyle=orthogonalEdgeStyle;rounded=0;orthogonalLoop=1;jettySize=auto;html=1;entryX=0.25;entryY=1;entryDx=0;entryDy=0;endArrow=none;endFill=0;" edge="1" parent="1" source="ZOqUm4qgHndNliNhtv4M-134" target="qQAGesgytiKlmJrBEsk5-27">
          <mxGeometry relative="1" as="geometry">
            <Array as="points">
              <mxPoint x="-430" y="355" />
              <mxPoint x="-430" y="310" />
              <mxPoint x="-387" y="310" />
            </Array>
          </mxGeometry>
        </mxCell>
        <mxCell id="ZOqUm4qgHndNliNhtv4M-134" value="foto" style="ellipse;whiteSpace=wrap;html=1;" vertex="1" parent="1">
          <mxGeometry x="-530" y="335" width="60" height="40" as="geometry" />
        </mxCell>
        <mxCell id="ZOqUm4qgHndNliNhtv4M-140" value="Factores" style="whiteSpace=wrap;html=1;" vertex="1" parent="1">
          <mxGeometry x="-960" y="-262.5" width="80" height="40" as="geometry" />
        </mxCell>
        <mxCell id="ZOqUm4qgHndNliNhtv4M-142" value="" style="edgeStyle=orthogonalEdgeStyle;rounded=0;orthogonalLoop=1;jettySize=auto;html=1;entryX=1;entryY=0.5;entryDx=0;entryDy=0;endArrow=none;endFill=0;" edge="1" parent="1" source="ZOqUm4qgHndNliNhtv4M-141" target="ZOqUm4qgHndNliNhtv4M-34">
          <mxGeometry relative="1" as="geometry" />
        </mxCell>
        <mxCell id="ZOqUm4qgHndNliNhtv4M-143" value="" style="edgeStyle=orthogonalEdgeStyle;rounded=0;orthogonalLoop=1;jettySize=auto;html=1;endArrow=none;endFill=0;" edge="1" parent="1" source="ZOqUm4qgHndNliNhtv4M-141" target="ZOqUm4qgHndNliNhtv4M-140">
          <mxGeometry relative="1" as="geometry" />
        </mxCell>
        <mxCell id="ZOqUm4qgHndNliNhtv4M-141" value="Posibles" style="rhombus;whiteSpace=wrap;html=1;" vertex="1" parent="1">
          <mxGeometry x="-1110" y="-227.5" width="70" height="60" as="geometry" />
        </mxCell>
        <mxCell id="ZOqUm4qgHndNliNhtv4M-144" value="N- N" style="text;html=1;align=center;verticalAlign=middle;resizable=0;points=[];autosize=1;strokeColor=none;fillColor=none;" vertex="1" parent="1">
          <mxGeometry x="-1180" y="-227.5" width="50" height="30" as="geometry" />
        </mxCell>
        <mxCell id="ZOqUm4qgHndNliNhtv4M-145" value="N- N" style="text;html=1;align=center;verticalAlign=middle;resizable=0;points=[];autosize=1;strokeColor=none;fillColor=none;" vertex="1" parent="1">
          <mxGeometry x="-1010" y="-267.5" width="50" height="30" as="geometry" />
        </mxCell>
        <mxCell id="ZOqUm4qgHndNliNhtv4M-147" value="Causas" style="ellipse;whiteSpace=wrap;html=1;" vertex="1" parent="1">
          <mxGeometry x="-940" y="-347.5" width="80" height="50" as="geometry" />
        </mxCell>
        <mxCell id="ZOqUm4qgHndNliNhtv4M-148" value="Tipo" style="ellipse;whiteSpace=wrap;html=1;" vertex="1" parent="1">
          <mxGeometry x="-855" y="-312.5" width="80" height="50" as="geometry" />
        </mxCell>
        <mxCell id="ZOqUm4qgHndNliNhtv4M-149" value="" style="endArrow=none;html=1;rounded=0;entryX=0.5;entryY=0;entryDx=0;entryDy=0;exitX=0.5;exitY=1;exitDx=0;exitDy=0;" edge="1" parent="1" source="ZOqUm4qgHndNliNhtv4M-147" target="ZOqUm4qgHndNliNhtv4M-140">
          <mxGeometry width="50" height="50" relative="1" as="geometry">
            <mxPoint x="-1160" y="-167.5" as="sourcePoint" />
            <mxPoint x="-1110" y="-217.5" as="targetPoint" />
          </mxGeometry>
        </mxCell>
        <mxCell id="ZOqUm4qgHndNliNhtv4M-150" value="" style="endArrow=none;html=1;rounded=0;entryX=1;entryY=0.5;entryDx=0;entryDy=0;exitX=0;exitY=0.5;exitDx=0;exitDy=0;" edge="1" parent="1" target="ZOqUm4qgHndNliNhtv4M-140">
          <mxGeometry width="50" height="50" relative="1" as="geometry">
            <mxPoint x="-845" y="-272.5" as="sourcePoint" />
            <mxPoint x="-1110" y="-217.5" as="targetPoint" />
          </mxGeometry>
        </mxCell>
        <mxCell id="ZOqUm4qgHndNliNhtv4M-151" value="Nombre" style="ellipse;whiteSpace=wrap;html=1;" vertex="1" parent="1">
          <mxGeometry x="-940" y="-192.5" width="80" height="50" as="geometry" />
        </mxCell>
        <mxCell id="ZOqUm4qgHndNliNhtv4M-152" value="" style="endArrow=none;html=1;rounded=0;entryX=0.5;entryY=0;entryDx=0;entryDy=0;exitX=0.5;exitY=1;exitDx=0;exitDy=0;" edge="1" parent="1" source="ZOqUm4qgHndNliNhtv4M-140" target="ZOqUm4qgHndNliNhtv4M-151">
          <mxGeometry width="50" height="50" relative="1" as="geometry">
            <mxPoint x="-1040" y="2.5" as="sourcePoint" />
            <mxPoint x="-990" y="-47.5" as="targetPoint" />
          </mxGeometry>
        </mxCell>
        <mxCell id="ZOqUm4qgHndNliNhtv4M-153" value="tiene" style="rhombus;whiteSpace=wrap;html=1;" vertex="1" parent="1">
          <mxGeometry x="-525" y="460" width="60" height="60" as="geometry" />
        </mxCell>
        <mxCell id="ZOqUm4qgHndNliNhtv4M-154" value="" style="endArrow=none;html=1;rounded=0;exitX=0.5;exitY=1;exitDx=0;exitDy=0;entryX=0.5;entryY=0;entryDx=0;entryDy=0;" edge="1" parent="1" source="ZOqUm4qgHndNliNhtv4M-158" target="ZOqUm4qgHndNliNhtv4M-153">
          <mxGeometry width="50" height="50" relative="1" as="geometry">
            <mxPoint x="-120" y="470" as="sourcePoint" />
            <mxPoint x="-70" y="420" as="targetPoint" />
          </mxGeometry>
        </mxCell>
        <mxCell id="ZOqUm4qgHndNliNhtv4M-155" value="" style="endArrow=none;html=1;rounded=0;exitX=0.5;exitY=0;exitDx=0;exitDy=0;entryX=0.5;entryY=1;entryDx=0;entryDy=0;" edge="1" parent="1" source="ZOqUm4qgHndNliNhtv4M-160" target="ZOqUm4qgHndNliNhtv4M-153">
          <mxGeometry width="50" height="50" relative="1" as="geometry">
            <mxPoint x="-120" y="470" as="sourcePoint" />
            <mxPoint x="-70" y="420" as="targetPoint" />
          </mxGeometry>
        </mxCell>
        <mxCell id="ZOqUm4qgHndNliNhtv4M-161" value="Tiene" style="rhombus;whiteSpace=wrap;html=1;" vertex="1" parent="1">
          <mxGeometry x="-1240" y="190" width="80" height="80" as="geometry" />
        </mxCell>
        <mxCell id="ZOqUm4qgHndNliNhtv4M-162" value="" style="endArrow=none;html=1;rounded=0;exitX=0.5;exitY=0;exitDx=0;exitDy=0;entryX=0;entryY=0.75;entryDx=0;entryDy=0;" edge="1" parent="1" source="ZOqUm4qgHndNliNhtv4M-161" target="ZOqUm4qgHndNliNhtv4M-34">
          <mxGeometry width="50" height="50" relative="1" as="geometry">
            <mxPoint x="-940" y="320" as="sourcePoint" />
            <mxPoint x="-890" y="270" as="targetPoint" />
          </mxGeometry>
        </mxCell>
        <mxCell id="ZOqUm4qgHndNliNhtv4M-163" value="" style="endArrow=none;html=1;rounded=0;exitX=0.5;exitY=1;exitDx=0;exitDy=0;entryX=0;entryY=0;entryDx=0;entryDy=0;" edge="1" parent="1" source="ZOqUm4qgHndNliNhtv4M-164" target="ZOqUm4qgHndNliNhtv4M-45">
          <mxGeometry width="50" height="50" relative="1" as="geometry">
            <mxPoint x="-940" y="320" as="sourcePoint" />
            <mxPoint x="-890" y="270" as="targetPoint" />
          </mxGeometry>
        </mxCell>
        <mxCell id="ZOqUm4qgHndNliNhtv4M-165" value="N" style="text;html=1;align=center;verticalAlign=middle;resizable=0;points=[];autosize=1;strokeColor=none;fillColor=none;" vertex="1" parent="1">
          <mxGeometry x="-1270" y="-142.5" width="30" height="30" as="geometry" />
        </mxCell>
        <mxCell id="ZOqUm4qgHndNliNhtv4M-166" value="incluye" style="rhombus;whiteSpace=wrap;html=1;" vertex="1" parent="1">
          <mxGeometry x="-970" y="740" width="80" height="80" as="geometry" />
        </mxCell>
        <mxCell id="ZOqUm4qgHndNliNhtv4M-167" value="" style="endArrow=none;html=1;rounded=0;exitX=1;exitY=1;exitDx=0;exitDy=0;entryX=0;entryY=0.25;entryDx=0;entryDy=0;" edge="1" parent="1" source="ZOqUm4qgHndNliNhtv4M-166" target="ZOqUm4qgHndNliNhtv4M-56">
          <mxGeometry width="50" height="50" relative="1" as="geometry">
            <mxPoint x="-710" y="830" as="sourcePoint" />
            <mxPoint x="-660" y="780" as="targetPoint" />
          </mxGeometry>
        </mxCell>
        <mxCell id="ZOqUm4qgHndNliNhtv4M-168" value="" style="endArrow=none;html=1;rounded=0;exitX=0.5;exitY=0;exitDx=0;exitDy=0;entryX=0.5;entryY=1;entryDx=0;entryDy=0;" edge="1" parent="1" source="ZOqUm4qgHndNliNhtv4M-124" target="ZOqUm4qgHndNliNhtv4M-132">
          <mxGeometry width="50" height="50" relative="1" as="geometry">
            <mxPoint x="-1110" y="-40" as="sourcePoint" />
            <mxPoint x="-1232" y="-177" as="targetPoint" />
          </mxGeometry>
        </mxCell>
        <mxCell id="ZOqUm4qgHndNliNhtv4M-132" value="N- N" style="text;html=1;align=center;verticalAlign=middle;resizable=0;points=[];autosize=1;strokeColor=none;fillColor=none;" vertex="1" parent="1">
          <mxGeometry x="-1182.5" y="-110" width="50" height="30" as="geometry" />
        </mxCell>
        <mxCell id="ZOqUm4qgHndNliNhtv4M-170" value="n - 0" style="text;html=1;align=center;verticalAlign=middle;resizable=0;points=[];autosize=1;strokeColor=none;fillColor=none;" vertex="1" parent="1">
          <mxGeometry x="-830" y="812" width="50" height="30" as="geometry" />
        </mxCell>
        <mxCell id="ZOqUm4qgHndNliNhtv4M-171" value="pertenece" style="rhombus;whiteSpace=wrap;html=1;" vertex="1" parent="1">
          <mxGeometry x="-1197.5" y="522.5" width="80" height="80" as="geometry" />
        </mxCell>
        <mxCell id="ZOqUm4qgHndNliNhtv4M-172" value="" style="endArrow=none;html=1;rounded=0;exitX=1;exitY=0.5;exitDx=0;exitDy=0;entryX=0;entryY=0.5;entryDx=0;entryDy=0;" edge="1" parent="1" source="ZOqUm4qgHndNliNhtv4M-177" target="ZOqUm4qgHndNliNhtv4M-45">
          <mxGeometry width="50" height="50" relative="1" as="geometry">
            <mxPoint x="-1090" y="490" as="sourcePoint" />
            <mxPoint x="-1040" y="440" as="targetPoint" />
          </mxGeometry>
        </mxCell>
        <mxCell id="ZOqUm4qgHndNliNhtv4M-173" value="" style="endArrow=none;html=1;rounded=0;exitX=1;exitY=0.5;exitDx=0;exitDy=0;entryX=0;entryY=0.5;entryDx=0;entryDy=0;" edge="1" parent="1" source="ZOqUm4qgHndNliNhtv4M-64" target="ZOqUm4qgHndNliNhtv4M-171">
          <mxGeometry width="50" height="50" relative="1" as="geometry">
            <mxPoint x="-1090" y="490" as="sourcePoint" />
            <mxPoint x="-1040" y="440" as="targetPoint" />
          </mxGeometry>
        </mxCell>
        <mxCell id="ZOqUm4qgHndNliNhtv4M-174" value="" style="endArrow=none;html=1;rounded=0;exitX=0.5;exitY=1;exitDx=0;exitDy=0;entryX=0;entryY=0;entryDx=0;entryDy=0;" edge="1" parent="1" source="ZOqUm4qgHndNliNhtv4M-161" target="ZOqUm4qgHndNliNhtv4M-164">
          <mxGeometry width="50" height="50" relative="1" as="geometry">
            <mxPoint x="-1200" y="270" as="sourcePoint" />
            <mxPoint x="-941" y="563" as="targetPoint" />
          </mxGeometry>
        </mxCell>
        <mxCell id="ZOqUm4qgHndNliNhtv4M-164" value="N" style="text;html=1;align=center;verticalAlign=middle;resizable=0;points=[];autosize=1;strokeColor=none;fillColor=none;" vertex="1" parent="1">
          <mxGeometry x="-1020" y="480" width="30" height="30" as="geometry" />
        </mxCell>
        <mxCell id="ZOqUm4qgHndNliNhtv4M-175" value="" style="endArrow=none;html=1;rounded=0;exitX=0.5;exitY=0;exitDx=0;exitDy=0;entryX=0.5;entryY=1;entryDx=0;entryDy=0;" edge="1" parent="1" source="ZOqUm4qgHndNliNhtv4M-45" target="ZOqUm4qgHndNliNhtv4M-160">
          <mxGeometry width="50" height="50" relative="1" as="geometry">
            <mxPoint x="-894" y="563" as="sourcePoint" />
            <mxPoint x="-495" y="520" as="targetPoint" />
          </mxGeometry>
        </mxCell>
        <mxCell id="ZOqUm4qgHndNliNhtv4M-160" value="N" style="text;html=1;align=center;verticalAlign=middle;resizable=0;points=[];autosize=1;strokeColor=none;fillColor=none;" vertex="1" parent="1">
          <mxGeometry x="-826.25" y="532.5" width="30" height="30" as="geometry" />
        </mxCell>
        <mxCell id="ZOqUm4qgHndNliNhtv4M-176" value="" style="endArrow=none;html=1;rounded=0;exitX=0.5;exitY=0;exitDx=0;exitDy=0;entryX=0;entryY=1;entryDx=0;entryDy=0;" edge="1" parent="1" source="ZOqUm4qgHndNliNhtv4M-166" target="ZOqUm4qgHndNliNhtv4M-169">
          <mxGeometry width="50" height="50" relative="1" as="geometry">
            <mxPoint x="-930" y="740" as="sourcePoint" />
            <mxPoint x="-941" y="593" as="targetPoint" />
          </mxGeometry>
        </mxCell>
        <mxCell id="ZOqUm4qgHndNliNhtv4M-169" value="N- 0" style="text;html=1;align=center;verticalAlign=middle;resizable=0;points=[];autosize=1;strokeColor=none;fillColor=none;" vertex="1" parent="1">
          <mxGeometry x="-970" y="610" width="50" height="30" as="geometry" />
        </mxCell>
        <mxCell id="ZOqUm4qgHndNliNhtv4M-178" value="" style="endArrow=none;html=1;rounded=0;exitX=1;exitY=0.5;exitDx=0;exitDy=0;entryX=0;entryY=0.5;entryDx=0;entryDy=0;" edge="1" parent="1" source="ZOqUm4qgHndNliNhtv4M-171" target="ZOqUm4qgHndNliNhtv4M-177">
          <mxGeometry width="50" height="50" relative="1" as="geometry">
            <mxPoint x="-1117" y="563" as="sourcePoint" />
            <mxPoint x="-941" y="578" as="targetPoint" />
          </mxGeometry>
        </mxCell>
        <mxCell id="ZOqUm4qgHndNliNhtv4M-177" value="1 - 1" style="text;html=1;align=center;verticalAlign=middle;resizable=0;points=[];autosize=1;strokeColor=none;fillColor=none;" vertex="1" parent="1">
          <mxGeometry x="-1060" y="550" width="50" height="30" as="geometry" />
        </mxCell>
        <mxCell id="ZOqUm4qgHndNliNhtv4M-179" value="1 - N" style="text;html=1;align=center;verticalAlign=middle;resizable=0;points=[];autosize=1;strokeColor=none;fillColor=none;" vertex="1" parent="1">
          <mxGeometry x="-1285" y="525" width="50" height="30" as="geometry" />
        </mxCell>
        <mxCell id="ZOqUm4qgHndNliNhtv4M-180" value="Terapia" style="whiteSpace=wrap;html=1;" vertex="1" parent="1">
          <mxGeometry x="-1630" y="-217.5" width="100" height="40" as="geometry" />
        </mxCell>
        <mxCell id="ZOqUm4qgHndNliNhtv4M-181" value="&lt;b&gt;&lt;u&gt;ID_terapia&lt;/u&gt;&lt;/b&gt;" style="ellipse;whiteSpace=wrap;html=1;" vertex="1" parent="1">
          <mxGeometry x="-1630" y="-300" width="100" height="42.5" as="geometry" />
        </mxCell>
        <mxCell id="ZOqUm4qgHndNliNhtv4M-186" value="" style="endArrow=none;html=1;rounded=0;exitX=0.5;exitY=0;exitDx=0;exitDy=0;entryX=0.5;entryY=1;entryDx=0;entryDy=0;" edge="1" parent="1" source="ZOqUm4qgHndNliNhtv4M-180" target="ZOqUm4qgHndNliNhtv4M-181">
          <mxGeometry width="50" height="50" relative="1" as="geometry">
            <mxPoint x="-1230" y="-190" as="sourcePoint" />
            <mxPoint x="-1180" y="-240" as="targetPoint" />
          </mxGeometry>
        </mxCell>
        <mxCell id="ZOqUm4qgHndNliNhtv4M-187" value="Nombre" style="ellipse;whiteSpace=wrap;html=1;" vertex="1" parent="1">
          <mxGeometry x="-1798" y="-230" width="90" height="45" as="geometry" />
        </mxCell>
        <mxCell id="ZOqUm4qgHndNliNhtv4M-188" value="Descripcion" style="ellipse;whiteSpace=wrap;html=1;" vertex="1" parent="1">
          <mxGeometry x="-1720" y="-165" width="90" height="45" as="geometry" />
        </mxCell>
        <mxCell id="ZOqUm4qgHndNliNhtv4M-190" value="" style="endArrow=none;html=1;rounded=0;exitX=1;exitY=0.5;exitDx=0;exitDy=0;entryX=0;entryY=0.25;entryDx=0;entryDy=0;" edge="1" parent="1" source="ZOqUm4qgHndNliNhtv4M-187" target="ZOqUm4qgHndNliNhtv4M-180">
          <mxGeometry width="50" height="50" relative="1" as="geometry">
            <mxPoint x="-1500" y="-190" as="sourcePoint" />
            <mxPoint x="-1450" y="-240" as="targetPoint" />
          </mxGeometry>
        </mxCell>
        <mxCell id="ZOqUm4qgHndNliNhtv4M-191" value="" style="endArrow=none;html=1;rounded=0;exitX=0.5;exitY=0;exitDx=0;exitDy=0;entryX=0;entryY=0.5;entryDx=0;entryDy=0;" edge="1" parent="1" source="ZOqUm4qgHndNliNhtv4M-188" target="ZOqUm4qgHndNliNhtv4M-180">
          <mxGeometry width="50" height="50" relative="1" as="geometry">
            <mxPoint x="-1500" y="-190" as="sourcePoint" />
            <mxPoint x="-1450" y="-240" as="targetPoint" />
          </mxGeometry>
        </mxCell>
        <mxCell id="ZOqUm4qgHndNliNhtv4M-193" value="terapia_&lt;br&gt;enfermedad" style="rhombus;whiteSpace=wrap;html=1;" vertex="1" parent="1">
          <mxGeometry x="-1470" y="-237.5" width="80" height="80" as="geometry" />
        </mxCell>
        <mxCell id="ZOqUm4qgHndNliNhtv4M-194" value="" style="endArrow=none;html=1;rounded=0;exitX=1;exitY=0.5;exitDx=0;exitDy=0;entryX=0;entryY=0.5;entryDx=0;entryDy=0;" edge="1" parent="1" source="ZOqUm4qgHndNliNhtv4M-193" target="ZOqUm4qgHndNliNhtv4M-34">
          <mxGeometry width="50" height="50" relative="1" as="geometry">
            <mxPoint x="-1380" y="-80" as="sourcePoint" />
            <mxPoint x="-1330" y="-130" as="targetPoint" />
          </mxGeometry>
        </mxCell>
        <mxCell id="ZOqUm4qgHndNliNhtv4M-195" value="" style="endArrow=none;html=1;rounded=0;exitX=1;exitY=0.5;exitDx=0;exitDy=0;entryX=0;entryY=0.5;entryDx=0;entryDy=0;" edge="1" parent="1" source="ZOqUm4qgHndNliNhtv4M-180" target="ZOqUm4qgHndNliNhtv4M-193">
          <mxGeometry width="50" height="50" relative="1" as="geometry">
            <mxPoint x="-1380" y="-80" as="sourcePoint" />
            <mxPoint x="-1330" y="-130" as="targetPoint" />
          </mxGeometry>
        </mxCell>
        <mxCell id="ZOqUm4qgHndNliNhtv4M-196" value="N- 0" style="text;html=1;align=center;verticalAlign=middle;resizable=0;points=[];autosize=1;strokeColor=none;fillColor=none;" vertex="1" parent="1">
          <mxGeometry x="-1530" y="-222.5" width="50" height="30" as="geometry" />
        </mxCell>
        <mxCell id="ZOqUm4qgHndNliNhtv4M-201" value="" style="edgeStyle=orthogonalEdgeStyle;rounded=0;orthogonalLoop=1;jettySize=auto;html=1;endArrow=none;endFill=0;exitX=1;exitY=0.75;exitDx=0;exitDy=0;entryX=0.5;entryY=0;entryDx=0;entryDy=0;" edge="1" parent="1" source="ZOqUm4qgHndNliNhtv4M-34" target="ZOqUm4qgHndNliNhtv4M-129">
          <mxGeometry relative="1" as="geometry">
            <mxPoint x="-1182" y="-187" as="sourcePoint" />
            <mxPoint x="-425" y="-80" as="targetPoint" />
            <Array as="points">
              <mxPoint x="-1130" y="-187" />
              <mxPoint x="-1130" y="-120" />
              <mxPoint x="-425" y="-120" />
            </Array>
          </mxGeometry>
        </mxCell>
        <mxCell id="ZOqUm4qgHndNliNhtv4M-197" value="N- N" style="text;html=1;align=center;verticalAlign=middle;resizable=0;points=[];autosize=1;strokeColor=none;fillColor=none;" vertex="1" parent="1">
          <mxGeometry x="-890" y="-140" width="50" height="30" as="geometry" />
        </mxCell>
        <mxCell id="ZOqUm4qgHndNliNhtv4M-203" value="puede" style="rhombus;whiteSpace=wrap;html=1;" vertex="1" parent="1">
          <mxGeometry x="-350" y="430" width="80" height="80" as="geometry" />
        </mxCell>
        <mxCell id="ZOqUm4qgHndNliNhtv4M-204" value="" style="endArrow=none;html=1;rounded=0;exitX=0.75;exitY=1;exitDx=0;exitDy=0;entryX=0.5;entryY=0;entryDx=0;entryDy=0;" edge="1" parent="1" source="ZOqUm4qgHndNliNhtv4M-206" target="ZOqUm4qgHndNliNhtv4M-203">
          <mxGeometry width="50" height="50" relative="1" as="geometry">
            <mxPoint x="110" y="510" as="sourcePoint" />
            <mxPoint x="160" y="460" as="targetPoint" />
          </mxGeometry>
        </mxCell>
        <mxCell id="ZOqUm4qgHndNliNhtv4M-205" value="" style="endArrow=none;html=1;rounded=0;entryX=0.5;entryY=1;entryDx=0;entryDy=0;exitX=0;exitY=0;exitDx=0;exitDy=0;" edge="1" parent="1" source="ZOqUm4qgHndNliNhtv4M-208" target="ZOqUm4qgHndNliNhtv4M-203">
          <mxGeometry width="50" height="50" relative="1" as="geometry">
            <mxPoint x="110" y="510" as="sourcePoint" />
            <mxPoint x="160" y="460" as="targetPoint" />
          </mxGeometry>
        </mxCell>
        <mxCell id="ZOqUm4qgHndNliNhtv4M-207" value="" style="endArrow=none;html=1;rounded=0;exitX=0.75;exitY=1;exitDx=0;exitDy=0;entryX=0.5;entryY=0;entryDx=0;entryDy=0;" edge="1" parent="1" source="qQAGesgytiKlmJrBEsk5-27" target="ZOqUm4qgHndNliNhtv4M-206">
          <mxGeometry width="50" height="50" relative="1" as="geometry">
            <mxPoint x="-342" y="300" as="sourcePoint" />
            <mxPoint x="-310" y="430" as="targetPoint" />
          </mxGeometry>
        </mxCell>
        <mxCell id="ZOqUm4qgHndNliNhtv4M-206" value="1-N" style="text;html=1;strokeColor=none;fillColor=none;align=center;verticalAlign=middle;whiteSpace=wrap;rounded=0;" vertex="1" parent="1">
          <mxGeometry x="-365" y="340" width="60" height="30" as="geometry" />
        </mxCell>
        <mxCell id="ZOqUm4qgHndNliNhtv4M-209" value="" style="endArrow=none;html=1;rounded=0;entryX=0.5;entryY=1;entryDx=0;entryDy=0;exitX=0;exitY=0;exitDx=0;exitDy=0;" edge="1" parent="1" source="qQAGesgytiKlmJrBEsk5-17" target="ZOqUm4qgHndNliNhtv4M-208">
          <mxGeometry width="50" height="50" relative="1" as="geometry">
            <mxPoint x="-240" y="613" as="sourcePoint" />
            <mxPoint x="-310" y="510" as="targetPoint" />
          </mxGeometry>
        </mxCell>
        <mxCell id="ZOqUm4qgHndNliNhtv4M-208" value="0 - n" style="text;html=1;strokeColor=none;fillColor=none;align=center;verticalAlign=middle;whiteSpace=wrap;rounded=0;" vertex="1" parent="1">
          <mxGeometry x="-310" y="550" width="60" height="30" as="geometry" />
        </mxCell>
        <mxCell id="ZOqUm4qgHndNliNhtv4M-210" value="" style="endArrow=none;html=1;rounded=0;entryX=0;entryY=0.5;entryDx=0;entryDy=0;exitX=1;exitY=0.5;exitDx=0;exitDy=0;" edge="1" parent="1" source="ZOqUm4qgHndNliNhtv4M-219" target="MlGHDWVRIxSeFs9TXQ3_-19">
          <mxGeometry width="50" height="50" relative="1" as="geometry">
            <mxPoint x="330" y="700" as="sourcePoint" />
            <mxPoint x="260" y="780" as="targetPoint" />
          </mxGeometry>
        </mxCell>
        <mxCell id="ZOqUm4qgHndNliNhtv4M-211" value="puede" style="rhombus;whiteSpace=wrap;html=1;" vertex="1" parent="1">
          <mxGeometry x="150" y="585" width="80" height="80" as="geometry" />
        </mxCell>
        <mxCell id="ZOqUm4qgHndNliNhtv4M-213" value="" style="endArrow=none;html=1;rounded=0;exitX=1;exitY=0.25;exitDx=0;exitDy=0;entryX=0;entryY=0.5;entryDx=0;entryDy=0;" edge="1" parent="1" source="ZOqUm4qgHndNliNhtv4M-214" target="ZOqUm4qgHndNliNhtv4M-211">
          <mxGeometry width="50" height="50" relative="1" as="geometry">
            <mxPoint x="150" y="800" as="sourcePoint" />
            <mxPoint x="200" y="750" as="targetPoint" />
          </mxGeometry>
        </mxCell>
        <mxCell id="ZOqUm4qgHndNliNhtv4M-215" value="" style="endArrow=none;html=1;rounded=0;exitX=1;exitY=0.25;exitDx=0;exitDy=0;entryX=0;entryY=0.5;entryDx=0;entryDy=0;" edge="1" parent="1" source="qQAGesgytiKlmJrBEsk5-17" target="ZOqUm4qgHndNliNhtv4M-214">
          <mxGeometry width="50" height="50" relative="1" as="geometry">
            <mxPoint x="-120" y="628" as="sourcePoint" />
            <mxPoint x="150" y="625" as="targetPoint" />
          </mxGeometry>
        </mxCell>
        <mxCell id="ZOqUm4qgHndNliNhtv4M-214" value="0- n" style="text;html=1;strokeColor=none;fillColor=none;align=center;verticalAlign=middle;whiteSpace=wrap;rounded=0;" vertex="1" parent="1">
          <mxGeometry x="10" y="617.5" width="60" height="30" as="geometry" />
        </mxCell>
        <mxCell id="ZOqUm4qgHndNliNhtv4M-216" value="" style="endArrow=none;html=1;rounded=0;exitX=0.5;exitY=1;exitDx=0;exitDy=0;entryX=0.5;entryY=0;entryDx=0;entryDy=0;" edge="1" parent="1" source="qQAGesgytiKlmJrBEsk5-27" target="ZOqUm4qgHndNliNhtv4M-158">
          <mxGeometry width="50" height="50" relative="1" as="geometry">
            <mxPoint x="-365" y="300" as="sourcePoint" />
            <mxPoint x="-495" y="460" as="targetPoint" />
          </mxGeometry>
        </mxCell>
        <mxCell id="ZOqUm4qgHndNliNhtv4M-158" value="1&amp;nbsp; - 1" style="text;html=1;align=center;verticalAlign=middle;resizable=0;points=[];autosize=1;strokeColor=none;fillColor=none;" vertex="1" parent="1">
          <mxGeometry x="-485" y="390" width="50" height="30" as="geometry" />
        </mxCell>
        <mxCell id="ZOqUm4qgHndNliNhtv4M-220" value="" style="endArrow=none;html=1;rounded=0;entryX=0;entryY=0.5;entryDx=0;entryDy=0;exitX=1;exitY=0.5;exitDx=0;exitDy=0;" edge="1" parent="1" source="ZOqUm4qgHndNliNhtv4M-211" target="ZOqUm4qgHndNliNhtv4M-219">
          <mxGeometry width="50" height="50" relative="1" as="geometry">
            <mxPoint x="230" y="625" as="sourcePoint" />
            <mxPoint x="455" y="628" as="targetPoint" />
          </mxGeometry>
        </mxCell>
        <mxCell id="ZOqUm4qgHndNliNhtv4M-219" value="0-1" style="text;html=1;align=center;verticalAlign=middle;resizable=0;points=[];autosize=1;strokeColor=none;fillColor=none;" vertex="1" parent="1">
          <mxGeometry x="335" y="612.5" width="40" height="30" as="geometry" />
        </mxCell>
        <mxCell id="ZOqUm4qgHndNliNhtv4M-221" value="puede" style="rhombus;whiteSpace=wrap;html=1;" vertex="1" parent="1">
          <mxGeometry x="100" y="770" width="80" height="80" as="geometry" />
        </mxCell>
        <mxCell id="ZOqUm4qgHndNliNhtv4M-222" value="" style="endArrow=none;html=1;rounded=0;entryX=0;entryY=0.5;entryDx=0;entryDy=0;exitX=1;exitY=0.5;exitDx=0;exitDy=0;" edge="1" parent="1" source="ZOqUm4qgHndNliNhtv4M-221" target="ZOqUm4qgHndNliNhtv4M-73">
          <mxGeometry width="50" height="50" relative="1" as="geometry">
            <mxPoint x="140" y="710" as="sourcePoint" />
            <mxPoint x="190" y="660" as="targetPoint" />
          </mxGeometry>
        </mxCell>
        <mxCell id="ZOqUm4qgHndNliNhtv4M-229" value="1 - 0" style="edgeLabel;html=1;align=center;verticalAlign=middle;resizable=0;points=[];" vertex="1" connectable="0" parent="ZOqUm4qgHndNliNhtv4M-222">
          <mxGeometry x="0.2259" y="5" relative="1" as="geometry">
            <mxPoint as="offset" />
          </mxGeometry>
        </mxCell>
        <mxCell id="ZOqUm4qgHndNliNhtv4M-223" value="" style="endArrow=none;html=1;rounded=0;entryX=1;entryY=1;entryDx=0;entryDy=0;" edge="1" parent="1" source="ZOqUm4qgHndNliNhtv4M-221" target="qQAGesgytiKlmJrBEsk5-17">
          <mxGeometry width="50" height="50" relative="1" as="geometry">
            <mxPoint x="140" y="710" as="sourcePoint" />
            <mxPoint x="190" y="660" as="targetPoint" />
          </mxGeometry>
        </mxCell>
        <mxCell id="ZOqUm4qgHndNliNhtv4M-228" value="0 - n" style="edgeLabel;html=1;align=center;verticalAlign=middle;resizable=0;points=[];" vertex="1" connectable="0" parent="ZOqUm4qgHndNliNhtv4M-223">
          <mxGeometry x="0.3964" y="4" relative="1" as="geometry">
            <mxPoint as="offset" />
          </mxGeometry>
        </mxCell>
        <mxCell id="ZOqUm4qgHndNliNhtv4M-224" value="puede" style="rhombus;whiteSpace=wrap;html=1;" vertex="1" parent="1">
          <mxGeometry x="-100" y="860" width="80" height="80" as="geometry" />
        </mxCell>
        <mxCell id="ZOqUm4qgHndNliNhtv4M-225" value="" style="endArrow=none;html=1;rounded=0;exitX=0.5;exitY=0;exitDx=0;exitDy=0;entryX=0.5;entryY=1;entryDx=0;entryDy=0;" edge="1" parent="1" source="ZOqUm4qgHndNliNhtv4M-224" target="qQAGesgytiKlmJrBEsk5-17">
          <mxGeometry width="50" height="50" relative="1" as="geometry">
            <mxPoint x="50" y="820" as="sourcePoint" />
            <mxPoint x="100" y="770" as="targetPoint" />
          </mxGeometry>
        </mxCell>
        <mxCell id="ZOqUm4qgHndNliNhtv4M-231" value="0 -- n" style="edgeLabel;html=1;align=center;verticalAlign=middle;resizable=0;points=[];" vertex="1" connectable="0" parent="ZOqUm4qgHndNliNhtv4M-225">
          <mxGeometry x="0.6322" y="4" relative="1" as="geometry">
            <mxPoint as="offset" />
          </mxGeometry>
        </mxCell>
        <mxCell id="ZOqUm4qgHndNliNhtv4M-226" value="" style="endArrow=none;html=1;rounded=0;exitX=1;exitY=1;exitDx=0;exitDy=0;entryX=0;entryY=0;entryDx=0;entryDy=0;" edge="1" parent="1" source="ZOqUm4qgHndNliNhtv4M-224" target="ZOqUm4qgHndNliNhtv4M-84">
          <mxGeometry width="50" height="50" relative="1" as="geometry">
            <mxPoint x="50" y="820" as="sourcePoint" />
            <mxPoint x="100" y="770" as="targetPoint" />
          </mxGeometry>
        </mxCell>
        <mxCell id="ZOqUm4qgHndNliNhtv4M-230" value="1 - 0" style="edgeLabel;html=1;align=center;verticalAlign=middle;resizable=0;points=[];" vertex="1" connectable="0" parent="ZOqUm4qgHndNliNhtv4M-226">
          <mxGeometry x="0.2016" y="1" relative="1" as="geometry">
            <mxPoint as="offset" />
          </mxGeometry>
        </mxCell>
      </root>
    </mxGraphModel>
  </diagram>
</mxfile>
